# xmcd
#
# Track frame offsets:
#	150
#	9048
#	37081
#	132773
#	147474
#	161550
#	168567
#	190323
#	221017
#	251110
#	271042
#	302167
#	315922
#
# Disc length: 4484 seconds
#
# Revision: 1
# Processed by: cddbd v1.5.2PL0 Copyright (c) Steve Scherf et al.
# Submitted via: audiograbber 1.83.01
#
DISCID=b211820d
DTITLE=Grateful Dead - 71-10-29 Allan Theatre, Cleveland OH
DYEAR=1900
DGENRE=
TTITLE0=Cryptical Envelopment
TTITLE1=Drums
TTITLE2=The Other One
TTITLE3=Me and My Uncle
TTITLE4=The Other One
TTITLE5=Cryptical Envelopment
TTITLE6=Deal
TTITLE7=Sugar Magnolia
TTITLE8=Ramble On Rose
TTITLE9=Not Fade Away
TTITLE10=Going Down The Road Feeling Bad
TTITLE11=Not Fade Away
TTITLE12=One More Saturday Night
EXTD=
EXTT0=
EXTT1=
EXTT2=
EXTT3=
EXTT4=
EXTT5=
EXTT6=
EXTT7=
EXTT8=
EXTT9=
EXTT10=
EXTT11=
EXTT12=
PLAYORDER=
